<?xml version="1.0" encoding="UTF-8" standalone="no"?>
<!-- Created with Inkscape (http://www.inkscape.org/) -->

<svg
   xmlns:dc="http://purl.org/dc/elements/1.1/"
   xmlns:cc="http://creativecommons.org/ns#"
   xmlns:rdf="http://www.w3.org/1999/02/22-rdf-syntax-ns#"
   xmlns:svg="http://www.w3.org/2000/svg"
   xmlns="http://www.w3.org/2000/svg"
   xmlns:sodipodi="http://sodipodi.sourceforge.net/DTD/sodipodi-0.dtd"
   xmlns:inkscape="http://www.inkscape.org/namespaces/inkscape"
   version="1.1"
   id="svg10"
   width="297mm"
   height="210mm"
   viewBox="0 0 1122.5197 793.70079"
   sodipodi:docname="rscada.svg"
   inkscape:version="0.92.4 (5da689c313, 2019-01-14)"
   inkscape:export-filename="C:\Users\Rhúlio Victor\Desktop\UFPI\Período 10\Trabalho de Conclusão de Curso\diagramas e imagens\rscada.png"
   inkscape:export-xdpi="96"
   inkscape:export-ydpi="96">
  <metadata
     id="metadata16">
    <rdf:RDF>
      <cc:Work
         rdf:about="">
        <dc:format>image/svg+xml</dc:format>
        <dc:type
           rdf:resource="http://purl.org/dc/dcmitype/StillImage" />
        <dc:title></dc:title>
      </cc:Work>
    </rdf:RDF>
  </metadata>
  <defs
     id="defs14" />
  <sodipodi:namedview
     pagecolor="#ffffff"
     bordercolor="#666666"
     borderopacity="1"
     objecttolerance="10"
     gridtolerance="10"
     guidetolerance="10"
     inkscape:pageopacity="0"
     inkscape:pageshadow="2"
     inkscape:window-width="1920"
     inkscape:window-height="1017"
     id="namedview12"
     showgrid="false"
     inkscape:zoom="0.47708084"
     inkscape:cx="219.69662"
     inkscape:cy="88.874689"
     inkscape:window-x="-9"
     inkscape:window-y="-9"
     inkscape:window-maximized="1"
     inkscape:current-layer="svg10"
     units="mm" />
  <g
     id="g38"
     transform="matrix(2.0328793,0,0,2.0830071,-965.0296,-44.825548)">
    <path
       style="fill:#000080;stroke-width:1.87395251"
       d="m 490.61926,279.91626 c 0,-4.65351 1.6597,-6.60539 10.45831,-12.29942 l 10.45833,-6.76809 -1.22743,-17.01949 c -1.18512,-16.4326 -1.07302,-17.12491 3.251,-20.07685 6.08665,-4.1553 12.32026,-3.8412 17.14778,0.86407 3.7131,3.61906 3.92332,5.16767 2.72626,20.0823 l -1.29708,16.16083 9.40779,5.88411 c 8.49594,5.31376 11.61255,9.68463 11.68772,16.39128 0.0197,1.75766 -7.48955,2.31259 -31.29338,2.31259 h -31.3193 z m 117.68466,1.9825 c 0,-6.4105 2.11568,-9.15204 11.67845,-15.13307 l 9.44296,-5.90608 -1.29707,-16.16083 c -1.19706,-14.91463 -0.98685,-16.46324 2.72626,-20.0823 4.82253,-4.70042 11.06013,-5.02006 17.1278,-0.87773 4.30586,2.93959 4.41468,3.62515 3.17918,20.03038 l -1.27931,16.98664 10.53018,6.81458 c 8.86774,5.73876 10.53015,7.68783 10.53015,12.34591 v 5.53133 h -31.3193 c -29.60876,0 -31.3193,-0.19383 -31.3193,-3.54883 z m -32.04054,-29.28998 c -1.18831,-2.0696 -4.13267,-3.23763 -8.16142,-3.23763 -5.49636,0 -6.32659,-0.6238 -6.49104,-4.8772 -0.27537,-7.12161 -2.14634,-10.84842 -5.44628,-10.84842 -4.28253,0 -3.53931,-5.73541 0.88951,-6.86424 3.59798,-0.91706 4.69679,-3.50518 4.15491,-9.78642 -0.48,-5.5638 1.36882,-7.99142 4.28784,-5.6302 3.1608,2.55682 9.41677,0.0477 11.20481,-4.49381 1.40804,-3.57636 6.92639,-3.71664 6.92639,-0.17613 0,3.09765 6.65814,5.65123 12.90752,4.95039 3.538,-0.39679 4.2919,0.32715 3.97562,3.81759 -0.69653,7.68661 0.14615,10.78247 2.9353,10.78247 4.98226,0 5.49156,4.14302 0.92227,7.50236 -3.10213,2.28068 -4.50038,5.19109 -4.54381,9.45773 -0.0585,5.73809 -0.49879,6.16331 -6.38469,6.16453 -3.82897,7.8e-4 -7.27977,1.27802 -8.75088,3.23893 -1.33591,1.78069 -3.36001,3.23763 -4.49802,3.23763 -1.138,0 -2.90562,-1.45694 -3.92803,-3.23763 z m 12.19634,-14.25396 c 5.64869,-5.50567 5.94091,-10.86019 0.8628,-15.80973 -7.46538,-7.27634 -20.87954,-2.01396 -20.87954,8.19105 0,4.66257 7.81804,12.15976 12.68017,12.15976 1.47263,0 4.77408,-2.04348 7.33657,-4.54108 z m 150.24874,-0.3285 c -0.73207,-0.71354 -1.33105,-9.95492 -1.33105,-20.53639 0,-10.58148 -0.83621,-20.76197 -1.85826,-22.62331 -2.13041,-3.87992 2.09847,-8.69002 5.72135,-6.50766 1.17218,0.7061 5.9017,0.25491 10.51006,-1.00268 6.52704,-1.78118 8.98598,-1.79539 11.12606,-0.0642 4.0068,3.24115 1.47372,7.50196 -4.45996,7.50196 -9.99523,0 -11.41266,2.8433 -11.97895,24.02925 -0.42187,15.78237 -1.06737,19.5064 -3.45843,19.95225 -1.61688,0.30151 -3.53874,-0.0357 -4.27082,-0.74917 z m 39.19865,-0.5677 c -10.32229,-4.314 -6.53504,-11.98303 4.4568,-9.0249 4.69174,1.26266 8.25548,1.22087 11.30306,-0.13265 7.04775,-3.12986 5.36181,-7.42788 -4.56525,-11.63831 -12.83841,-5.44523 -15.65966,-8.3852 -15.65966,-16.31865 0,-8.41913 4.62275,-12.92328 14.56325,-14.18966 9.72284,-1.23864 17.70513,1.87994 17.70513,6.91719 0,3.6202 -0.69875,3.82588 -9.14942,2.69304 -7.14717,-0.9581 -9.69681,-0.58363 -11.6508,1.71117 -2.0956,2.4611 -1.97433,3.50532 0.74747,6.43672 1.78689,1.92448 5.53496,4.05192 8.32908,4.72762 12.64265,3.05745 18.44413,18.32807 9.84476,25.91332 -4.29623,3.7896 -19.68246,5.51374 -25.92442,2.90502 z m 48.89179,-0.84467 c -6.98883,-3.77552 -9.55895,-10.14554 -9.63235,-23.87362 -0.0795,-14.87534 3.10195,-22.02818 11.2634,-25.32316 9.90482,-3.99883 24.73403,0.15596 24.73403,6.92978 0,2.26157 -1.67226,2.57665 -8.69499,1.63844 -13.97508,-1.86698 -15.98088,0.2026 -15.98088,16.48904 0,12.85925 0.32891,13.9962 4.59739,15.8918 3.37239,1.49767 6.24864,1.48064 10.79449,-0.064 6.84451,-2.3256 10.52709,-0.48272 8.63559,4.32162 -2.41842,6.1428 -17.42251,8.47075 -25.71668,3.99006 z m 42.14869,0.71881 c -8.48716,-3.33298 -10.97467,-16.57708 -4.56294,-24.29561 3.02924,-3.64675 5.37781,-4.36762 14.23035,-4.36762 10.31924,0 10.60244,-0.1369 10.60794,-5.12736 0,-6.94455 -6.71808,-10.05032 -15.38613,-7.10508 -6.84469,2.3256 -10.52708,0.4827 -8.63558,-4.32163 2.96204,-7.52378 23.13737,-8.25987 30.47482,-1.11187 3.36692,3.27985 4.08916,6.56251 4.61096,20.95295 0.45992,12.68451 1.37349,17.6345 3.55977,19.28752 1.61778,1.22303 2.43379,3.51249 1.81367,5.0877 -1.41013,3.58145 -7.63963,3.72701 -10.60225,0.24773 -1.91693,-2.25138 -2.94211,-2.25297 -7.35035,-0.0111 -5.74017,2.91884 -12.56626,3.19707 -18.76026,0.76467 z m 16.01023,-8.55346 c 3.17692,-0.82981 4.27082,-2.48189 4.27082,-6.44999 0,-4.98225 -0.49694,-5.33444 -7.52575,-5.33444 -9.08867,0 -13.45857,5.18388 -8.46912,10.04691 3.235,3.15308 5.1935,3.44334 11.72405,1.73752 z m 38.8274,8.47831 c -5.8719,-2.29692 -9.88077,-12.39458 -9.88077,-24.88793 0,-19.74743 7.7093,-28.41509 23.16129,-26.04049 l 7.02729,1.07993 0.56527,-11.57068 c 0.49617,-10.15363 1.03031,-11.57067 4.36174,-11.57067 3.61083,0 3.84847,1.58057 4.86493,32.37629 0.58766,17.80695 1.75236,34.23936 2.58792,36.51647 1.79109,4.88064 -3.02032,7.77066 -7.24615,4.35236 -1.8355,-1.48473 -4.081,-1.54513 -7.69202,-0.20697 -6.1215,2.26843 -11.86679,2.2528 -17.7495,-0.0483 z m 16.8179,-9.22739 c 3.1511,-1.64371 3.67157,-3.97314 3.67157,-16.43489 0,-13.49356 -0.30181,-14.59856 -4.27082,-15.63526 -11.23755,-2.93528 -14.71058,0.93896 -14.71058,16.40961 0,15.65466 5.17433,20.94755 15.30983,15.66054 z m 34.64028,9.30254 c -8.48715,-3.33298 -10.97466,-16.57708 -4.56293,-24.29561 3.02924,-3.64675 5.37781,-4.36762 14.23035,-4.36762 10.31924,0 10.60244,-0.1369 10.60794,-5.12736 0,-6.94455 -6.71808,-10.05032 -15.38613,-7.10508 -6.84469,2.3256 -10.52708,0.4827 -8.63558,-4.32163 2.96204,-7.52378 23.13737,-8.25987 30.47485,-1.11187 3.3669,3.27985 4.0891,6.56251 4.6109,20.95295 0.4599,12.68451 1.3735,17.6345 3.5598,19.28752 1.6178,1.22303 2.4338,3.51249 1.8137,5.0877 -1.4102,3.58145 -7.6397,3.72701 -10.6023,0.24773 -1.91691,-2.25138 -2.94209,-2.25297 -7.35033,-0.0111 -5.74017,2.91884 -12.56626,3.19707 -18.76027,0.76467 z m 16.01024,-8.55346 c 3.17692,-0.82981 4.27082,-2.48189 4.27082,-6.44999 0,-4.98225 -0.49694,-5.33444 -7.52575,-5.33444 -9.08867,0 -13.45857,5.18388 -8.46912,10.04691 3.235,3.15308 5.1935,3.44334 11.72405,1.73752 z M 549.46159,181.99478 c 0,-6.4105 2.11568,-9.15203 11.67845,-15.13306 l 9.44296,-5.90608 -1.31877,-16.43108 c -1.14892,-14.31485 -0.88214,-16.90133 2.07139,-20.08229 4.44035,-4.78229 13.16293,-4.65288 18.21396,0.27024 3.7131,3.61908 3.92332,5.16768 2.72626,20.08231 l -1.29708,16.16082 9.44296,5.90608 c 9.56277,5.98103 11.67848,8.72256 11.67848,15.13306 0,3.355 -1.71057,3.54883 -31.31931,3.54883 -29.60876,0 -31.3193,-0.19383 -31.3193,-3.54883 z"
       id="path44"
       inkscape:connector-curvature="0" />
  </g>
</svg>
